<mxfile host="Electron" agent="Mozilla/5.0 (Macintosh; Intel Mac OS X 10_15_7) AppleWebKit/537.36 (KHTML, like Gecko) draw.io/24.7.5 Chrome/126.0.6478.183 Electron/31.3.0 Safari/537.36" version="24.7.5">
  <diagram name="Page-1" id="SHD7UDlB_XUJz2UPsoch">
    <mxGraphModel dx="264" dy="-9022" grid="1" gridSize="10" guides="1" tooltips="1" connect="1" arrows="1" fold="1" page="1" pageScale="1" pageWidth="850" pageHeight="1100" background="#FFFFFF" math="1" shadow="0">
      <root>
        <mxCell id="0" />
        <mxCell id="1" parent="0" />
        <mxCell id="UCHa1UU7zW6uGpZXuyY--20" value="" style="rounded=1;whiteSpace=wrap;html=1;fillColor=#d5e8d4;strokeColor=#000000;arcSize=10;strokeWidth=2;opacity=60;" vertex="1" parent="1">
          <mxGeometry x="1367.25" y="10583.5" width="402.75" height="126.5" as="geometry" />
        </mxCell>
        <mxCell id="UCHa1UU7zW6uGpZXuyY--46" style="edgeStyle=orthogonalEdgeStyle;rounded=0;orthogonalLoop=1;jettySize=auto;html=1;" edge="1" parent="1">
          <mxGeometry relative="1" as="geometry">
            <mxPoint x="1579" y="10740" as="targetPoint" />
            <mxPoint x="1579" y="10740" as="sourcePoint" />
          </mxGeometry>
        </mxCell>
        <mxCell id="UCHa1UU7zW6uGpZXuyY--34" value="$$ d_{jt} $$" style="text;html=1;align=center;verticalAlign=middle;whiteSpace=wrap;rounded=0;rotation=0;fontSize=17;fontFamily=Verdana;fillColor=none;fontColor=#B3B3B3;strokeColor=none;strokeWidth=2;" vertex="1" parent="1">
          <mxGeometry x="1610" y="10586" width="20" height="30" as="geometry" />
        </mxCell>
        <mxCell id="UCHa1UU7zW6uGpZXuyY--35" value="" style="endArrow=classic;html=1;rounded=0;fillColor=#f5f5f5;strokeColor=#B3B3B3;strokeWidth=2;" edge="1" parent="1">
          <mxGeometry width="50" height="50" relative="1" as="geometry">
            <mxPoint x="1616" y="10629" as="sourcePoint" />
            <mxPoint x="1650" y="10598" as="targetPoint" />
          </mxGeometry>
        </mxCell>
        <mxCell id="oLPMuAoCh5_cgTSaJTIH-137" style="edgeStyle=orthogonalEdgeStyle;rounded=0;orthogonalLoop=1;jettySize=auto;html=1;strokeColor=#000000;strokeWidth=2;entryX=0;entryY=0.5;entryDx=0;entryDy=0;exitX=1;exitY=0;exitDx=0;exitDy=0;" parent="1" source="oLPMuAoCh5_cgTSaJTIH-207" target="oLPMuAoCh5_cgTSaJTIH-170" edge="1">
          <mxGeometry relative="1" as="geometry">
            <mxPoint x="2180" y="10792" as="sourcePoint" />
            <mxPoint x="2220" y="10792" as="targetPoint" />
            <Array as="points">
              <mxPoint x="2148.75" y="10833" />
              <mxPoint x="2148.75" y="10742" />
            </Array>
          </mxGeometry>
        </mxCell>
        <mxCell id="oLPMuAoCh5_cgTSaJTIH-140" style="edgeStyle=orthogonalEdgeStyle;rounded=0;orthogonalLoop=1;jettySize=auto;html=1;exitX=1;exitY=0.5;exitDx=0;exitDy=0;strokeColor=#000000;strokeWidth=2;entryX=0;entryY=0.5;entryDx=0;entryDy=0;" parent="1" source="oLPMuAoCh5_cgTSaJTIH-202" target="oLPMuAoCh5_cgTSaJTIH-206" edge="1">
          <mxGeometry relative="1" as="geometry">
            <mxPoint x="1979.75" y="10922" as="sourcePoint" />
            <mxPoint x="1747.25" y="10921" as="targetPoint" />
          </mxGeometry>
        </mxCell>
        <mxCell id="oLPMuAoCh5_cgTSaJTIH-143" style="edgeStyle=orthogonalEdgeStyle;rounded=0;orthogonalLoop=1;jettySize=auto;html=1;fillColor=#dae8fc;strokeColor=#6c8ebf;strokeWidth=2;exitX=0.909;exitY=0.696;exitDx=0;exitDy=0;exitPerimeter=0;entryX=1;entryY=0.5;entryDx=0;entryDy=0;" parent="1" source="oLPMuAoCh5_cgTSaJTIH-205" target="oLPMuAoCh5_cgTSaJTIH-146" edge="1">
          <mxGeometry relative="1" as="geometry">
            <Array as="points">
              <mxPoint x="2210" y="10998" />
              <mxPoint x="2210" y="11090" />
            </Array>
            <mxPoint x="2240" y="11030" as="sourcePoint" />
            <mxPoint x="2050" y="11109" as="targetPoint" />
          </mxGeometry>
        </mxCell>
        <mxCell id="oLPMuAoCh5_cgTSaJTIH-144" style="edgeStyle=orthogonalEdgeStyle;rounded=0;orthogonalLoop=1;jettySize=auto;html=1;exitX=0.5;exitY=1;exitDx=0;exitDy=0;entryX=0.5;entryY=1;entryDx=0;entryDy=0;strokeColor=#000000;strokeWidth=2;" parent="1" source="oLPMuAoCh5_cgTSaJTIH-204" target="oLPMuAoCh5_cgTSaJTIH-202" edge="1">
          <mxGeometry relative="1" as="geometry">
            <Array as="points">
              <mxPoint x="2470" y="11222" />
              <mxPoint x="1519" y="11222" />
            </Array>
            <mxPoint x="2480" y="10961" as="sourcePoint" />
            <mxPoint x="1320.25" y="10961" as="targetPoint" />
          </mxGeometry>
        </mxCell>
        <mxCell id="oLPMuAoCh5_cgTSaJTIH-145" style="edgeStyle=orthogonalEdgeStyle;rounded=0;orthogonalLoop=1;jettySize=auto;html=1;fillColor=#dae8fc;strokeColor=#6c8ebf;exitX=0;exitY=0.5;exitDx=0;exitDy=0;strokeWidth=2;" parent="1" source="oLPMuAoCh5_cgTSaJTIH-146" edge="1">
          <mxGeometry relative="1" as="geometry">
            <mxPoint x="1699" y="10932" as="targetPoint" />
            <mxPoint x="1933.75" y="11021" as="sourcePoint" />
            <Array as="points">
              <mxPoint x="1699" y="11092" />
              <mxPoint x="1699" y="10982" />
            </Array>
          </mxGeometry>
        </mxCell>
        <mxCell id="oLPMuAoCh5_cgTSaJTIH-146" value="$$W$$" style="ellipse;whiteSpace=wrap;html=1;aspect=fixed;fontSize=24;fontFamily=Verdana;fillColor=#dae8fc;strokeColor=#6c8ebf;strokeWidth=2;fontColor=#000000;" parent="1" vertex="1">
          <mxGeometry x="1900" y="11050" width="80" height="80" as="geometry" />
        </mxCell>
        <mxCell id="oLPMuAoCh5_cgTSaJTIH-147" style="edgeStyle=orthogonalEdgeStyle;rounded=0;orthogonalLoop=1;jettySize=auto;html=1;exitX=0.5;exitY=0;exitDx=0;exitDy=0;shape=link;dashed=1;fillColor=#e1d5e7;strokeColor=#808080;strokeWidth=2;entryX=0.5;entryY=1;entryDx=0;entryDy=0;" parent="1" edge="1" target="oLPMuAoCh5_cgTSaJTIH-159" source="oLPMuAoCh5_cgTSaJTIH-170">
          <mxGeometry relative="1" as="geometry">
            <mxPoint x="2294.21" y="10502" as="sourcePoint" />
            <mxPoint x="2294" y="10632" as="targetPoint" />
          </mxGeometry>
        </mxCell>
        <mxCell id="oLPMuAoCh5_cgTSaJTIH-150" value="$$ \phi_1 $$" style="text;html=1;align=center;verticalAlign=middle;whiteSpace=wrap;rounded=0;rotation=0;fontSize=18;fontFamily=Verdana;fontColor=#000000;strokeWidth=2;" parent="1" vertex="1">
          <mxGeometry x="1405.5" y="10743.75" width="39" height="30" as="geometry" />
        </mxCell>
        <mxCell id="oLPMuAoCh5_cgTSaJTIH-151" value="$$\Lambda^{S}_{jt} + \Psi^{S}_{jt} $$" style="text;html=1;align=center;verticalAlign=middle;whiteSpace=wrap;rounded=0;rotation=0;fontSize=18;fontFamily=Verdana;fontColor=#000000;strokeWidth=2;" parent="1" vertex="1">
          <mxGeometry x="1625" y="10887" width="94" height="30" as="geometry" />
        </mxCell>
        <mxCell id="oLPMuAoCh5_cgTSaJTIH-152" value="$$ \gamma_1 $$" style="text;html=1;align=center;verticalAlign=middle;whiteSpace=wrap;rounded=0;rotation=0;fontSize=18;fontFamily=Verdana;fontColor=#000000;strokeWidth=2;" parent="1" vertex="1">
          <mxGeometry x="2239.5" y="10829" width="70" height="30" as="geometry" />
        </mxCell>
        <mxCell id="oLPMuAoCh5_cgTSaJTIH-153" value="$$ \omega_1 $$" style="text;html=1;align=center;verticalAlign=middle;whiteSpace=wrap;rounded=0;rotation=0;fontSize=18;fontFamily=Verdana;fontColor=#000000;strokeWidth=2;" parent="1" vertex="1">
          <mxGeometry x="1497.5" y="10651" width="39" height="30" as="geometry" />
        </mxCell>
        <mxCell id="oLPMuAoCh5_cgTSaJTIH-154" value="" style="endArrow=classic;html=1;rounded=0;fillColor=#f5f5f5;strokeColor=#B3B3B3;strokeWidth=2;" parent="1" edge="1">
          <mxGeometry width="50" height="50" relative="1" as="geometry">
            <mxPoint x="1551.5" y="10897" as="sourcePoint" />
            <mxPoint x="1585.5" y="10866" as="targetPoint" />
          </mxGeometry>
        </mxCell>
        <mxCell id="oLPMuAoCh5_cgTSaJTIH-155" value="$$ \varepsilon $$" style="text;html=1;align=center;verticalAlign=middle;whiteSpace=wrap;rounded=0;rotation=0;fontSize=19;fontFamily=Verdana;fontColor=#000000;strokeWidth=2;" parent="1" vertex="1">
          <mxGeometry x="1999.75" y="11224" width="39" height="30" as="geometry" />
        </mxCell>
        <mxCell id="oLPMuAoCh5_cgTSaJTIH-157" style="edgeStyle=orthogonalEdgeStyle;rounded=0;orthogonalLoop=1;jettySize=auto;html=1;strokeColor=#000000;strokeWidth=2;exitX=0.5;exitY=0;exitDx=0;exitDy=0;entryX=1;entryY=0.5;entryDx=0;entryDy=0;" parent="1" source="oLPMuAoCh5_cgTSaJTIH-207" target="oLPMuAoCh5_cgTSaJTIH-163" edge="1">
          <mxGeometry relative="1" as="geometry">
            <mxPoint x="2100" y="10782" as="sourcePoint" />
            <Array as="points">
              <mxPoint x="2129" y="10821" />
              <mxPoint x="2129" y="10742" />
            </Array>
            <mxPoint x="2099" y="10612" as="targetPoint" />
          </mxGeometry>
        </mxCell>
        <mxCell id="oLPMuAoCh5_cgTSaJTIH-158" value="Reported cases" style="whiteSpace=wrap;html=1;fillColor=#f5f5f5;strokeColor=#666666;strokeWidth=2;fontSize=16;gradientColor=#b3b3b3;fontColor=#000000;" parent="1" vertex="1">
          <mxGeometry x="1933.5" y="10542" width="90" height="80" as="geometry" />
        </mxCell>
        <mxCell id="oLPMuAoCh5_cgTSaJTIH-159" value="Reported deaths" style="whiteSpace=wrap;html=1;fillColor=#f5f5f5;strokeColor=#666666;strokeWidth=2;fontSize=16;gradientColor=#b3b3b3;fontColor=#000000;" parent="1" vertex="1">
          <mxGeometry x="2250.5" y="10542" width="90" height="80" as="geometry" />
        </mxCell>
        <mxCell id="oLPMuAoCh5_cgTSaJTIH-160" value="$$ \sigma $$" style="text;html=1;align=center;verticalAlign=middle;whiteSpace=wrap;rounded=0;rotation=0;fontSize=18;fontFamily=Verdana;fontColor=#000000;strokeWidth=2;" parent="1" vertex="1">
          <mxGeometry x="2010" y="10831" width="20" height="30" as="geometry" />
        </mxCell>
        <mxCell id="oLPMuAoCh5_cgTSaJTIH-161" value="$$ 1-\sigma $$" style="text;html=1;align=center;verticalAlign=middle;whiteSpace=wrap;rounded=0;rotation=0;fontSize=18;fontFamily=Verdana;fontColor=#000000;strokeWidth=2;" parent="1" vertex="1">
          <mxGeometry x="2000.75" y="10951" width="37" height="30" as="geometry" />
        </mxCell>
        <mxCell id="oLPMuAoCh5_cgTSaJTIH-162" style="edgeStyle=orthogonalEdgeStyle;rounded=0;orthogonalLoop=1;jettySize=auto;html=1;exitX=0.5;exitY=0;exitDx=0;exitDy=0;entryX=0.5;entryY=1;entryDx=0;entryDy=0;shape=link;dashed=1;fillColor=#e1d5e7;strokeColor=#808080;strokeWidth=2;" parent="1" source="oLPMuAoCh5_cgTSaJTIH-163" target="oLPMuAoCh5_cgTSaJTIH-158" edge="1">
          <mxGeometry relative="1" as="geometry" />
        </mxCell>
        <mxCell id="oLPMuAoCh5_cgTSaJTIH-163" value="&lt;span style=&quot;font-size: 15px;&quot;&gt;Expected&lt;/span&gt;&lt;div style=&quot;font-size: 15px;&quot;&gt;&lt;span style=&quot;font-size: 15px;&quot;&gt;cases&lt;/span&gt;&lt;/div&gt;" style="ellipse;whiteSpace=wrap;html=1;fontSize=15;fontFamily=Verdana;fillColor=#fff2cc;strokeColor=#000000;strokeWidth=2;fontColor=#000000;" parent="1" vertex="1">
          <mxGeometry x="1936" y="10702" width="85" height="80" as="geometry" />
        </mxCell>
        <mxCell id="oLPMuAoCh5_cgTSaJTIH-164" value="$$ 1/\rho $$" style="text;html=1;align=center;verticalAlign=middle;whiteSpace=wrap;rounded=0;rotation=0;fontSize=18;fontFamily=Verdana;fontColor=#000000;strokeWidth=2;" parent="1" vertex="1">
          <mxGeometry x="2067" y="10709.5" width="20" height="30" as="geometry" />
        </mxCell>
        <mxCell id="oLPMuAoCh5_cgTSaJTIH-167" value="$$ \zeta_1 $$" style="text;html=1;align=center;verticalAlign=middle;whiteSpace=wrap;rounded=0;rotation=0;fontSize=18;fontFamily=Verdana;fillColor=none;fontColor=#000000;strokeColor=none;strokeWidth=2;" parent="1" vertex="1">
          <mxGeometry x="2239.75" y="11044" width="20" height="30" as="geometry" />
        </mxCell>
        <mxCell id="oLPMuAoCh5_cgTSaJTIH-168" value="" style="endArrow=classic;html=1;rounded=0;fillColor=#f5f5f5;strokeColor=#6C8EBF;strokeWidth=2;exitX=0.5;exitY=1;exitDx=0;exitDy=0;" parent="1" source="oLPMuAoCh5_cgTSaJTIH-146" edge="1">
          <mxGeometry width="50" height="50" relative="1" as="geometry">
            <mxPoint x="1975.25" y="11141" as="sourcePoint" />
            <mxPoint x="1939" y="11202" as="targetPoint" />
          </mxGeometry>
        </mxCell>
        <mxCell id="oLPMuAoCh5_cgTSaJTIH-169" value="$$ \delta $$" style="text;html=1;align=center;verticalAlign=middle;whiteSpace=wrap;rounded=0;rotation=0;fontSize=18;fontFamily=Verdana;fontColor=#000000;strokeWidth=2;" parent="1" vertex="1">
          <mxGeometry x="1895" y="11151" width="51.5" height="30" as="geometry" />
        </mxCell>
        <mxCell id="oLPMuAoCh5_cgTSaJTIH-170" value="&lt;div style=&quot;font-size: 15px;&quot;&gt;&lt;font style=&quot;font-size: 15px;&quot;&gt;Expected&lt;/font&gt;&lt;/div&gt;&lt;div style=&quot;font-size: 15px;&quot;&gt;&lt;font style=&quot;font-size: 15px;&quot;&gt;deaths&lt;/font&gt;&lt;/div&gt;" style="ellipse;whiteSpace=wrap;html=1;fontSize=15;fontFamily=Verdana;fillColor=#f8cecc;strokeColor=#000000;strokeWidth=2;fontColor=#000000;" parent="1" vertex="1">
          <mxGeometry x="2253" y="10702" width="85" height="80" as="geometry" />
        </mxCell>
        <mxCell id="oLPMuAoCh5_cgTSaJTIH-171" value="$$b_{jt}$$" style="text;html=1;align=center;verticalAlign=middle;whiteSpace=wrap;rounded=0;rotation=0;fontSize=17;fontFamily=Verdana;fillColor=none;fontColor=#B3B3B3;strokeColor=none;strokeWidth=2;" parent="1" vertex="1">
          <mxGeometry x="1471.5" y="10969" width="20" height="30" as="geometry" />
        </mxCell>
        <mxCell id="oLPMuAoCh5_cgTSaJTIH-172" value="" style="endArrow=classic;html=1;rounded=0;fillColor=#f5f5f5;strokeColor=#B3B3B3;strokeWidth=2;" parent="1" edge="1">
          <mxGeometry width="50" height="50" relative="1" as="geometry">
            <mxPoint x="1456.5" y="10982" as="sourcePoint" />
            <mxPoint x="1490.5" y="10951" as="targetPoint" />
          </mxGeometry>
        </mxCell>
        <mxCell id="oLPMuAoCh5_cgTSaJTIH-173" value="$$ d_{jt} $$" style="text;html=1;align=center;verticalAlign=middle;whiteSpace=wrap;rounded=0;rotation=0;fontSize=17;fontFamily=Verdana;fillColor=none;fontColor=#B3B3B3;strokeColor=none;strokeWidth=2;" parent="1" vertex="1">
          <mxGeometry x="1467.5" y="10587" width="20" height="30" as="geometry" />
        </mxCell>
        <mxCell id="oLPMuAoCh5_cgTSaJTIH-174" value="" style="endArrow=classic;html=1;rounded=0;fillColor=#f5f5f5;strokeColor=#B3B3B3;strokeWidth=2;" parent="1" edge="1">
          <mxGeometry width="50" height="50" relative="1" as="geometry">
            <mxPoint x="1473.5" y="10629" as="sourcePoint" />
            <mxPoint x="1507.5" y="10598" as="targetPoint" />
          </mxGeometry>
        </mxCell>
        <mxCell id="oLPMuAoCh5_cgTSaJTIH-183" value="$$ d_{jt} $$" style="text;html=1;align=center;verticalAlign=middle;whiteSpace=wrap;rounded=0;rotation=0;fontSize=17;fontFamily=Verdana;fillColor=none;fontColor=#B3B3B3;strokeColor=none;strokeWidth=2;" parent="1" vertex="1">
          <mxGeometry x="1833.75" y="10857" width="20" height="30" as="geometry" />
        </mxCell>
        <mxCell id="oLPMuAoCh5_cgTSaJTIH-184" value="" style="endArrow=classic;html=1;rounded=0;fillColor=#f5f5f5;strokeColor=#B3B3B3;strokeWidth=2;" parent="1" edge="1">
          <mxGeometry width="50" height="50" relative="1" as="geometry">
            <mxPoint x="1843.75" y="10898" as="sourcePoint" />
            <mxPoint x="1877.75" y="10867" as="targetPoint" />
          </mxGeometry>
        </mxCell>
        <mxCell id="oLPMuAoCh5_cgTSaJTIH-186" value="$$ \iota $$" style="text;html=1;align=center;verticalAlign=middle;whiteSpace=wrap;rounded=0;rotation=0;fontSize=19;fontFamily=Verdana;fontColor=#000000;strokeWidth=2;" parent="1" vertex="1">
          <mxGeometry x="1861" y="10890" width="70" height="30" as="geometry" />
        </mxCell>
        <mxCell id="oLPMuAoCh5_cgTSaJTIH-188" style="edgeStyle=orthogonalEdgeStyle;rounded=0;orthogonalLoop=1;jettySize=auto;html=1;exitX=1;exitY=0.5;exitDx=0;exitDy=0;entryX=0;entryY=0.5;entryDx=0;entryDy=0;strokeWidth=2;strokeColor=#000000;" parent="1" target="oLPMuAoCh5_cgTSaJTIH-205" edge="1">
          <mxGeometry relative="1" as="geometry">
            <mxPoint x="1854.25" y="10921" as="sourcePoint" />
            <mxPoint x="2024.25" y="10855" as="targetPoint" />
            <Array as="points">
              <mxPoint x="1938" y="10921" />
              <mxPoint x="1938" y="10982" />
            </Array>
          </mxGeometry>
        </mxCell>
        <mxCell id="oLPMuAoCh5_cgTSaJTIH-189" style="edgeStyle=orthogonalEdgeStyle;rounded=0;orthogonalLoop=1;jettySize=auto;html=1;exitX=1;exitY=0.5;exitDx=0;exitDy=0;strokeWidth=2;strokeColor=#000000;entryX=0;entryY=0.5;entryDx=0;entryDy=0;" parent="1" source="oLPMuAoCh5_cgTSaJTIH-206" target="oLPMuAoCh5_cgTSaJTIH-207" edge="1">
          <mxGeometry relative="1" as="geometry">
            <mxPoint x="1854.25" y="10921" as="sourcePoint" />
            <mxPoint x="1997.25" y="10902" as="targetPoint" />
            <Array as="points">
              <mxPoint x="1938" y="10921" />
              <mxPoint x="1938" y="10861" />
            </Array>
          </mxGeometry>
        </mxCell>
        <mxCell id="oLPMuAoCh5_cgTSaJTIH-190" style="edgeStyle=orthogonalEdgeStyle;rounded=0;orthogonalLoop=1;jettySize=auto;html=1;exitX=1;exitY=1;exitDx=0;exitDy=0;fillColor=#dae8fc;strokeColor=#6c8ebf;strokeWidth=2;" parent="1" source="oLPMuAoCh5_cgTSaJTIH-207" edge="1">
          <mxGeometry relative="1" as="geometry">
            <mxPoint x="2100.0342712474617" y="10899.284271247461" as="sourcePoint" />
            <mxPoint x="1990" y="11090" as="targetPoint" />
            <Array as="points">
              <mxPoint x="2166" y="10882" />
              <mxPoint x="2229" y="10882" />
              <mxPoint x="2229" y="11090" />
            </Array>
          </mxGeometry>
        </mxCell>
        <mxCell id="oLPMuAoCh5_cgTSaJTIH-191" value="$$ \zeta_2 $$" style="text;html=1;align=center;verticalAlign=middle;whiteSpace=wrap;rounded=0;rotation=0;fontSize=18;fontFamily=Verdana;fillColor=none;fontColor=#000000;strokeColor=none;strokeWidth=2;" parent="1" vertex="1">
          <mxGeometry x="2178.25" y="11044" width="20" height="30" as="geometry" />
        </mxCell>
        <mxCell id="oLPMuAoCh5_cgTSaJTIH-192" style="edgeStyle=orthogonalEdgeStyle;rounded=0;orthogonalLoop=1;jettySize=auto;html=1;exitX=1;exitY=0.5;exitDx=0;exitDy=0;strokeWidth=2;strokeColor=#000000;entryX=0;entryY=0.5;entryDx=0;entryDy=0;" parent="1" source="oLPMuAoCh5_cgTSaJTIH-207" target="oLPMuAoCh5_cgTSaJTIH-204" edge="1">
          <mxGeometry relative="1" as="geometry">
            <mxPoint x="2194.75" y="10872" as="sourcePoint" />
            <mxPoint x="2400.25" y="10942" as="targetPoint" />
            <Array as="points">
              <mxPoint x="2340" y="10861" />
              <mxPoint x="2340" y="10921" />
            </Array>
          </mxGeometry>
        </mxCell>
        <mxCell id="oLPMuAoCh5_cgTSaJTIH-193" style="edgeStyle=orthogonalEdgeStyle;rounded=0;orthogonalLoop=1;jettySize=auto;html=1;exitX=1;exitY=0.5;exitDx=0;exitDy=0;strokeWidth=2;strokeColor=#000000;" parent="1" source="oLPMuAoCh5_cgTSaJTIH-205" edge="1">
          <mxGeometry relative="1" as="geometry">
            <mxPoint x="2188.25" y="10881" as="sourcePoint" />
            <mxPoint x="2419" y="10921" as="targetPoint" />
            <Array as="points">
              <mxPoint x="2340" y="10982" />
              <mxPoint x="2340" y="10921" />
            </Array>
          </mxGeometry>
        </mxCell>
        <mxCell id="oLPMuAoCh5_cgTSaJTIH-194" value="$$ d_{jt} $$" style="text;html=1;align=center;verticalAlign=middle;whiteSpace=wrap;rounded=0;rotation=0;fontSize=17;fontFamily=Verdana;fillColor=none;fontColor=#B3B3B3;strokeColor=none;strokeWidth=2;" parent="1" vertex="1">
          <mxGeometry x="2485.25" y="10852" width="20" height="30" as="geometry" />
        </mxCell>
        <mxCell id="oLPMuAoCh5_cgTSaJTIH-195" value="" style="endArrow=classic;html=1;rounded=0;fillColor=#f5f5f5;strokeColor=#B3B3B3;strokeWidth=2;" parent="1" edge="1">
          <mxGeometry width="50" height="50" relative="1" as="geometry">
            <mxPoint x="2496.25" y="10891" as="sourcePoint" />
            <mxPoint x="2530.25" y="10860" as="targetPoint" />
          </mxGeometry>
        </mxCell>
        <mxCell id="oLPMuAoCh5_cgTSaJTIH-196" value="$$ \gamma_2 $$" style="text;html=1;align=center;verticalAlign=middle;whiteSpace=wrap;rounded=0;rotation=0;fontSize=18;fontFamily=Verdana;fontColor=#000000;strokeWidth=2;" parent="1" vertex="1">
          <mxGeometry x="2239.75" y="10950" width="70" height="30" as="geometry" />
        </mxCell>
        <mxCell id="oLPMuAoCh5_cgTSaJTIH-202" value="$$S$$" style="ellipse;whiteSpace=wrap;html=1;aspect=fixed;fontSize=24;fontFamily=Verdana;fillColor=#FFFFFF;strokeColor=#000000;fontColor=#000000;strokeWidth=2;" parent="1" vertex="1">
          <mxGeometry x="1479" y="10881" width="80" height="80" as="geometry" />
        </mxCell>
        <mxCell id="oLPMuAoCh5_cgTSaJTIH-204" value="$$R$$" style="ellipse;whiteSpace=wrap;html=1;aspect=fixed;fontSize=24;fontFamily=Verdana;fillColor=#FFFFFF;strokeColor=#000000;fontColor=#000000;strokeWidth=2;" parent="1" vertex="1">
          <mxGeometry x="2430.25" y="10881" width="80" height="80" as="geometry" />
        </mxCell>
        <mxCell id="oLPMuAoCh5_cgTSaJTIH-206" value="$$E$$" style="ellipse;whiteSpace=wrap;html=1;aspect=fixed;fontSize=24;fontFamily=Verdana;fillColor=#FFFFFF;strokeColor=#000000;fontColor=#000000;strokeWidth=2;" parent="1" vertex="1">
          <mxGeometry x="1770.25" y="10881" width="80" height="80" as="geometry" />
        </mxCell>
        <mxCell id="oLPMuAoCh5_cgTSaJTIH-208" value="$$ \mu_{jt} $$" style="text;html=1;align=center;verticalAlign=middle;whiteSpace=wrap;rounded=0;rotation=0;fontSize=18;fontFamily=Verdana;fontColor=#000000;strokeWidth=2;" parent="1" vertex="1">
          <mxGeometry x="2189" y="10709.5" width="20" height="30" as="geometry" />
        </mxCell>
        <mxCell id="oLPMuAoCh5_cgTSaJTIH-210" value="" style="endArrow=classic;html=1;rounded=0;fillColor=#f5f5f5;strokeColor=#B3B3B3;strokeWidth=2;fontStyle=1" parent="1" edge="1">
          <mxGeometry width="50" height="50" relative="1" as="geometry">
            <mxPoint x="2168" y="10835" as="sourcePoint" />
            <mxPoint x="2202" y="10804" as="targetPoint" />
          </mxGeometry>
        </mxCell>
        <mxCell id="oLPMuAoCh5_cgTSaJTIH-209" value="&lt;span style=&quot;font-weight: 400;&quot;&gt;$$ d_{jt} $$&lt;/span&gt;" style="text;html=1;align=center;verticalAlign=middle;whiteSpace=wrap;rounded=0;rotation=0;fontSize=17;fontFamily=Verdana;fillColor=none;fontColor=#B3B3B3;strokeColor=none;strokeWidth=2;fontStyle=1" parent="1" vertex="1">
          <mxGeometry x="2159" y="10795" width="20" height="30" as="geometry" />
        </mxCell>
        <mxCell id="oLPMuAoCh5_cgTSaJTIH-213" value="&lt;span style=&quot;font-weight: 400;&quot;&gt;$$ d_{jt} $$&lt;/span&gt;" style="text;html=1;align=center;verticalAlign=middle;whiteSpace=wrap;rounded=0;rotation=0;fontSize=17;fontFamily=Verdana;fillColor=none;fontColor=#B3B3B3;strokeColor=none;strokeWidth=2;fontStyle=1" parent="1" vertex="1">
          <mxGeometry x="2162.5" y="10919" width="20" height="30" as="geometry" />
        </mxCell>
        <mxCell id="oLPMuAoCh5_cgTSaJTIH-214" value="" style="endArrow=classic;html=1;rounded=0;fillColor=#f5f5f5;strokeColor=#B3B3B3;strokeWidth=2;fontStyle=1" parent="1" edge="1">
          <mxGeometry width="50" height="50" relative="1" as="geometry">
            <mxPoint x="2171.5" y="10959" as="sourcePoint" />
            <mxPoint x="2205.5" y="10928" as="targetPoint" />
          </mxGeometry>
        </mxCell>
        <mxCell id="UCHa1UU7zW6uGpZXuyY--8" value="$$(1-\phi_1)$$" style="text;html=1;align=center;verticalAlign=middle;whiteSpace=wrap;rounded=0;rotation=0;fontSize=18;fontFamily=Verdana;fontColor=#000000;strokeWidth=2;" vertex="1" parent="1">
          <mxGeometry x="1524" y="10752.5" width="39" height="12.5" as="geometry" />
        </mxCell>
        <mxCell id="UCHa1UU7zW6uGpZXuyY--18" value="$$V^{\text{sus}}_1$$" style="ellipse;whiteSpace=wrap;html=1;aspect=fixed;fontSize=22;fontFamily=Verdana;strokeWidth=2;fillColor=#FFFFFF;strokeColor=#36393d;fontColor=#000000;" vertex="1" parent="1">
          <mxGeometry x="1550" y="10611" width="80" height="80" as="geometry" />
        </mxCell>
        <mxCell id="UCHa1UU7zW6uGpZXuyY--21" value="$$V_1$$" style="text;html=1;align=center;verticalAlign=middle;whiteSpace=wrap;rounded=0;rotation=0;fontSize=24;fontFamily=Verdana;fontColor=#000000;strokeWidth=2;" vertex="1" parent="1">
          <mxGeometry x="1372" y="10592" width="39" height="30" as="geometry" />
        </mxCell>
        <mxCell id="UCHa1UU7zW6uGpZXuyY--22" style="edgeStyle=orthogonalEdgeStyle;rounded=0;orthogonalLoop=1;jettySize=auto;html=1;fillColor=#60a917;strokeColor=#000000;strokeWidth=2;exitX=0.5;exitY=0;exitDx=0;exitDy=0;entryX=0.5;entryY=1;entryDx=0;entryDy=0;" edge="1" parent="1" source="oLPMuAoCh5_cgTSaJTIH-202" target="oLPMuAoCh5_cgTSaJTIH-142">
          <mxGeometry relative="1" as="geometry">
            <mxPoint x="1459" y="10872" as="sourcePoint" />
            <mxPoint x="1460" y="10722" as="targetPoint" />
            <Array as="points">
              <mxPoint x="1519" y="10802" />
              <mxPoint x="1448" y="10802" />
            </Array>
          </mxGeometry>
        </mxCell>
        <mxCell id="UCHa1UU7zW6uGpZXuyY--26" style="edgeStyle=orthogonalEdgeStyle;rounded=0;orthogonalLoop=1;jettySize=auto;html=1;entryX=0;entryY=0.5;entryDx=0;entryDy=0;fillColor=#60a917;strokeColor=#000000;strokeWidth=2;exitX=1;exitY=0.5;exitDx=0;exitDy=0;" edge="1" parent="1" source="oLPMuAoCh5_cgTSaJTIH-142" target="UCHa1UU7zW6uGpZXuyY--18">
          <mxGeometry relative="1" as="geometry">
            <mxPoint x="1449" y="10931" as="sourcePoint" />
            <mxPoint x="1449" y="10706" as="targetPoint" />
            <Array as="points">
              <mxPoint x="1509" y="10651" />
              <mxPoint x="1509" y="10651" />
            </Array>
          </mxGeometry>
        </mxCell>
        <mxCell id="UCHa1UU7zW6uGpZXuyY--27" style="edgeStyle=orthogonalEdgeStyle;rounded=0;orthogonalLoop=1;jettySize=auto;html=1;fillColor=#60a917;strokeColor=#000000;strokeWidth=2;exitX=1;exitY=0.5;exitDx=0;exitDy=0;entryX=0.5;entryY=0;entryDx=0;entryDy=0;" edge="1" parent="1" source="UCHa1UU7zW6uGpZXuyY--19" target="oLPMuAoCh5_cgTSaJTIH-206">
          <mxGeometry relative="1" as="geometry">
            <mxPoint x="1636.5" y="10692" as="sourcePoint" />
            <mxPoint x="1679" y="10812" as="targetPoint" />
            <Array as="points">
              <mxPoint x="1810" y="10651" />
            </Array>
          </mxGeometry>
        </mxCell>
        <mxCell id="UCHa1UU7zW6uGpZXuyY--36" value="$$ \nu_{1,jt} $$" style="text;html=1;align=center;verticalAlign=middle;whiteSpace=wrap;rounded=0;rotation=0;fontSize=18;fontFamily=Verdana;fontColor=#000000;strokeWidth=2;" vertex="1" parent="1">
          <mxGeometry x="1471.5" y="10824" width="39" height="30" as="geometry" />
        </mxCell>
        <mxCell id="UCHa1UU7zW6uGpZXuyY--37" style="edgeStyle=orthogonalEdgeStyle;rounded=0;orthogonalLoop=1;jettySize=auto;html=1;exitX=0;exitY=0.5;exitDx=0;exitDy=0;entryX=1;entryY=0.5;entryDx=0;entryDy=0;shape=link;fillColor=#d5e8d4;strokeColor=#808080;dashed=1;strokeWidth=2;width=4;" edge="1" parent="1" source="UCHa1UU7zW6uGpZXuyY--20" target="UCHa1UU7zW6uGpZXuyY--38">
          <mxGeometry relative="1" as="geometry">
            <mxPoint x="1090" y="10641" as="targetPoint" />
            <Array as="points" />
            <mxPoint x="999" y="10641" as="sourcePoint" />
          </mxGeometry>
        </mxCell>
        <mxCell id="UCHa1UU7zW6uGpZXuyY--38" value="Reported vaccinations" style="whiteSpace=wrap;html=1;fillColor=#f5f5f5;strokeColor=#666666;strokeWidth=2;fontSize=16;gradientColor=#b3b3b3;fontColor=#000000;" vertex="1" parent="1">
          <mxGeometry x="1193" y="10606.75" width="98" height="80" as="geometry" />
        </mxCell>
        <mxCell id="UCHa1UU7zW6uGpZXuyY--48" style="edgeStyle=orthogonalEdgeStyle;rounded=0;orthogonalLoop=1;jettySize=auto;html=1;fillColor=#60a917;strokeColor=#000000;strokeWidth=2;exitX=0.5;exitY=0;exitDx=0;exitDy=0;entryX=0.5;entryY=1;entryDx=0;entryDy=0;" edge="1" parent="1" source="oLPMuAoCh5_cgTSaJTIH-202" target="UCHa1UU7zW6uGpZXuyY--18">
          <mxGeometry relative="1" as="geometry">
            <mxPoint x="1647" y="10612" as="sourcePoint" />
            <mxPoint x="1629" y="10702" as="targetPoint" />
            <Array as="points">
              <mxPoint x="1519" y="10802" />
              <mxPoint x="1590" y="10802" />
            </Array>
          </mxGeometry>
        </mxCell>
        <mxCell id="UCHa1UU7zW6uGpZXuyY--73" value="" style="edgeStyle=orthogonalEdgeStyle;rounded=0;orthogonalLoop=1;jettySize=auto;html=1;fillColor=#60a917;strokeColor=#000000;strokeWidth=2;exitX=1;exitY=0.5;exitDx=0;exitDy=0;entryX=0;entryY=0.5;entryDx=0;entryDy=0;endArrow=none;endFill=0;" edge="1" parent="1" source="UCHa1UU7zW6uGpZXuyY--18" target="UCHa1UU7zW6uGpZXuyY--19">
          <mxGeometry relative="1" as="geometry">
            <mxPoint x="1623" y="10651" as="sourcePoint" />
            <mxPoint x="1810" y="10930" as="targetPoint" />
            <Array as="points" />
          </mxGeometry>
        </mxCell>
        <mxCell id="UCHa1UU7zW6uGpZXuyY--19" value="$$V^{\text{inf}}_1$$" style="ellipse;whiteSpace=wrap;html=1;aspect=fixed;fontSize=22;fontFamily=Verdana;strokeWidth=2;fillColor=#FFFFFF;strokeColor=#808080;fontColor=#808080;dashed=1;" vertex="1" parent="1">
          <mxGeometry x="1671" y="10611" width="80" height="80" as="geometry" />
        </mxCell>
        <mxCell id="UCHa1UU7zW6uGpZXuyY--76" value="$$\Lambda^{V_1}_{jt} + \Psi^{V_1}_{jt} $$" style="text;html=1;align=center;verticalAlign=middle;whiteSpace=wrap;rounded=0;rotation=0;fontSize=18;fontFamily=Verdana;fontColor=#000000;strokeWidth=2;" vertex="1" parent="1">
          <mxGeometry x="1706" y="10783" width="94" height="30" as="geometry" />
        </mxCell>
        <mxCell id="UCHa1UU7zW6uGpZXuyY--108" value="" style="edgeStyle=orthogonalEdgeStyle;rounded=0;orthogonalLoop=1;jettySize=auto;html=1;" edge="1" parent="1" source="UCHa1UU7zW6uGpZXuyY--77" target="UCHa1UU7zW6uGpZXuyY--87">
          <mxGeometry relative="1" as="geometry" />
        </mxCell>
        <mxCell id="UCHa1UU7zW6uGpZXuyY--77" value="" style="rounded=1;whiteSpace=wrap;html=1;fillColor=#d5e8d4;strokeColor=#000000;arcSize=10;strokeWidth=2;opacity=60;" vertex="1" parent="1">
          <mxGeometry x="1367.25" y="10286" width="402.75" height="124" as="geometry" />
        </mxCell>
        <mxCell id="UCHa1UU7zW6uGpZXuyY--78" style="edgeStyle=orthogonalEdgeStyle;rounded=0;orthogonalLoop=1;jettySize=auto;html=1;" edge="1" parent="1">
          <mxGeometry relative="1" as="geometry">
            <mxPoint x="1578" y="10442.5" as="targetPoint" />
            <mxPoint x="1578" y="10442.5" as="sourcePoint" />
          </mxGeometry>
        </mxCell>
        <mxCell id="UCHa1UU7zW6uGpZXuyY--79" value="$$ d_{jt} $$" style="text;html=1;align=center;verticalAlign=middle;whiteSpace=wrap;rounded=0;rotation=0;fontSize=17;fontFamily=Verdana;fillColor=none;fontColor=#B3B3B3;strokeColor=none;strokeWidth=2;" vertex="1" parent="1">
          <mxGeometry x="1609" y="10287.5" width="20" height="30" as="geometry" />
        </mxCell>
        <mxCell id="UCHa1UU7zW6uGpZXuyY--80" value="" style="endArrow=classic;html=1;rounded=0;fillColor=#f5f5f5;strokeColor=#B3B3B3;strokeWidth=2;" edge="1" parent="1">
          <mxGeometry width="50" height="50" relative="1" as="geometry">
            <mxPoint x="1615" y="10331.5" as="sourcePoint" />
            <mxPoint x="1649" y="10300.5" as="targetPoint" />
          </mxGeometry>
        </mxCell>
        <mxCell id="UCHa1UU7zW6uGpZXuyY--82" value="$$ \phi_2 $$" style="text;html=1;align=center;verticalAlign=middle;whiteSpace=wrap;rounded=0;rotation=0;fontSize=18;fontFamily=Verdana;fontColor=#000000;strokeWidth=2;" vertex="1" parent="1">
          <mxGeometry x="1404.5" y="10446.25" width="39" height="30" as="geometry" />
        </mxCell>
        <mxCell id="UCHa1UU7zW6uGpZXuyY--84" value="$$ \omega_2 $$" style="text;html=1;align=center;verticalAlign=middle;whiteSpace=wrap;rounded=0;rotation=0;fontSize=18;fontFamily=Verdana;fontColor=#000000;strokeWidth=2;" vertex="1" parent="1">
          <mxGeometry x="1496.5" y="10353.5" width="39" height="30" as="geometry" />
        </mxCell>
        <mxCell id="UCHa1UU7zW6uGpZXuyY--85" value="$$ d_{jt} $$" style="text;html=1;align=center;verticalAlign=middle;whiteSpace=wrap;rounded=0;rotation=0;fontSize=17;fontFamily=Verdana;fillColor=none;fontColor=#B3B3B3;strokeColor=none;strokeWidth=2;" vertex="1" parent="1">
          <mxGeometry x="1466.5" y="10287.5" width="20" height="30" as="geometry" />
        </mxCell>
        <mxCell id="UCHa1UU7zW6uGpZXuyY--86" value="" style="endArrow=classic;html=1;rounded=0;fillColor=#f5f5f5;strokeColor=#B3B3B3;strokeWidth=2;" edge="1" parent="1">
          <mxGeometry width="50" height="50" relative="1" as="geometry">
            <mxPoint x="1472.5" y="10331.5" as="sourcePoint" />
            <mxPoint x="1506.5" y="10300.5" as="targetPoint" />
          </mxGeometry>
        </mxCell>
        <mxCell id="UCHa1UU7zW6uGpZXuyY--87" value="$$(1-\phi_2)$$" style="text;html=1;align=center;verticalAlign=middle;whiteSpace=wrap;rounded=0;rotation=0;fontSize=18;fontFamily=Verdana;fontColor=#000000;strokeWidth=2;" vertex="1" parent="1">
          <mxGeometry x="1523" y="10455" width="39" height="12.5" as="geometry" />
        </mxCell>
        <mxCell id="UCHa1UU7zW6uGpZXuyY--88" value="$$V^{\text{sus}}_2$$" style="ellipse;whiteSpace=wrap;html=1;aspect=fixed;fontSize=22;fontFamily=Verdana;strokeWidth=2;fillColor=#FFFFFF;strokeColor=#36393d;fontColor=#000000;" vertex="1" parent="1">
          <mxGeometry x="1549" y="10313.5" width="80" height="80" as="geometry" />
        </mxCell>
        <mxCell id="UCHa1UU7zW6uGpZXuyY--89" value="$$V_2$$" style="text;html=1;align=center;verticalAlign=middle;whiteSpace=wrap;rounded=0;rotation=0;fontSize=24;fontFamily=Verdana;fontColor=#000000;strokeWidth=2;" vertex="1" parent="1">
          <mxGeometry x="1371" y="10294.5" width="39" height="30" as="geometry" />
        </mxCell>
        <mxCell id="UCHa1UU7zW6uGpZXuyY--90" style="edgeStyle=orthogonalEdgeStyle;rounded=0;orthogonalLoop=1;jettySize=auto;html=1;fillColor=#60a917;strokeColor=#000000;strokeWidth=2;exitX=0.5;exitY=0;exitDx=0;exitDy=0;entryX=0.5;entryY=1;entryDx=0;entryDy=0;" edge="1" parent="1" target="UCHa1UU7zW6uGpZXuyY--81">
          <mxGeometry relative="1" as="geometry">
            <mxPoint x="1518" y="10583.5" as="sourcePoint" />
            <mxPoint x="1459" y="10424.5" as="targetPoint" />
            <Array as="points">
              <mxPoint x="1518" y="10504.5" />
              <mxPoint x="1447" y="10504.5" />
            </Array>
          </mxGeometry>
        </mxCell>
        <mxCell id="UCHa1UU7zW6uGpZXuyY--91" style="edgeStyle=orthogonalEdgeStyle;rounded=0;orthogonalLoop=1;jettySize=auto;html=1;entryX=0;entryY=0.5;entryDx=0;entryDy=0;fillColor=#60a917;strokeColor=#000000;strokeWidth=2;exitX=1;exitY=0.5;exitDx=0;exitDy=0;" edge="1" parent="1" source="UCHa1UU7zW6uGpZXuyY--81" target="UCHa1UU7zW6uGpZXuyY--88">
          <mxGeometry relative="1" as="geometry">
            <mxPoint x="1448" y="10633.5" as="sourcePoint" />
            <mxPoint x="1448" y="10408.5" as="targetPoint" />
            <Array as="points">
              <mxPoint x="1508" y="10353.5" />
              <mxPoint x="1508" y="10353.5" />
            </Array>
          </mxGeometry>
        </mxCell>
        <mxCell id="UCHa1UU7zW6uGpZXuyY--92" style="edgeStyle=orthogonalEdgeStyle;rounded=0;orthogonalLoop=1;jettySize=auto;html=1;fillColor=#60a917;strokeColor=#000000;strokeWidth=2;exitX=1;exitY=0.5;exitDx=0;exitDy=0;" edge="1" parent="1" source="UCHa1UU7zW6uGpZXuyY--98">
          <mxGeometry relative="1" as="geometry">
            <mxPoint x="1860" y="10349" as="sourcePoint" />
            <mxPoint x="1810" y="10870" as="targetPoint" />
            <Array as="points">
              <mxPoint x="1810" y="10354" />
            </Array>
          </mxGeometry>
        </mxCell>
        <mxCell id="UCHa1UU7zW6uGpZXuyY--93" value="$$ \nu_{2,jt} $$" style="text;html=1;align=center;verticalAlign=middle;whiteSpace=wrap;rounded=0;rotation=0;fontSize=18;fontFamily=Verdana;fontColor=#000000;strokeWidth=2;" vertex="1" parent="1">
          <mxGeometry x="1470.5" y="10526.5" width="39" height="30" as="geometry" />
        </mxCell>
        <mxCell id="UCHa1UU7zW6uGpZXuyY--94" style="edgeStyle=orthogonalEdgeStyle;rounded=0;orthogonalLoop=1;jettySize=auto;html=1;exitX=0;exitY=0.5;exitDx=0;exitDy=0;entryX=1;entryY=0.5;entryDx=0;entryDy=0;shape=link;fillColor=#d5e8d4;strokeColor=#808080;dashed=1;strokeWidth=2;width=4;" edge="1" parent="1" source="UCHa1UU7zW6uGpZXuyY--77" target="UCHa1UU7zW6uGpZXuyY--95">
          <mxGeometry relative="1" as="geometry">
            <mxPoint x="1089" y="10343.5" as="targetPoint" />
            <Array as="points" />
            <mxPoint x="998" y="10343.5" as="sourcePoint" />
          </mxGeometry>
        </mxCell>
        <mxCell id="UCHa1UU7zW6uGpZXuyY--95" value="Reported vaccinations" style="whiteSpace=wrap;html=1;fillColor=#f5f5f5;strokeColor=#666666;strokeWidth=2;fontSize=16;gradientColor=#b3b3b3;fontColor=#000000;" vertex="1" parent="1">
          <mxGeometry x="1193" y="10308" width="98" height="80" as="geometry" />
        </mxCell>
        <mxCell id="UCHa1UU7zW6uGpZXuyY--96" style="edgeStyle=orthogonalEdgeStyle;rounded=0;orthogonalLoop=1;jettySize=auto;html=1;fillColor=#60a917;strokeColor=#000000;strokeWidth=2;exitX=0.5;exitY=0;exitDx=0;exitDy=0;entryX=0.5;entryY=1;entryDx=0;entryDy=0;" edge="1" parent="1" target="UCHa1UU7zW6uGpZXuyY--88">
          <mxGeometry relative="1" as="geometry">
            <mxPoint x="1518" y="10583.5" as="sourcePoint" />
            <mxPoint x="1628" y="10404.5" as="targetPoint" />
            <Array as="points">
              <mxPoint x="1518" y="10504.5" />
              <mxPoint x="1589" y="10504.5" />
            </Array>
          </mxGeometry>
        </mxCell>
        <mxCell id="UCHa1UU7zW6uGpZXuyY--97" value="" style="edgeStyle=orthogonalEdgeStyle;rounded=0;orthogonalLoop=1;jettySize=auto;html=1;fillColor=#60a917;strokeColor=#000000;strokeWidth=2;exitX=1;exitY=0.5;exitDx=0;exitDy=0;entryX=0;entryY=0.5;entryDx=0;entryDy=0;endArrow=none;endFill=0;" edge="1" parent="1" source="UCHa1UU7zW6uGpZXuyY--88" target="UCHa1UU7zW6uGpZXuyY--98">
          <mxGeometry relative="1" as="geometry">
            <mxPoint x="1622" y="10353.5" as="sourcePoint" />
            <mxPoint x="1809" y="10632.5" as="targetPoint" />
            <Array as="points" />
          </mxGeometry>
        </mxCell>
        <mxCell id="UCHa1UU7zW6uGpZXuyY--98" value="$$V^{\text{inf}}_2$$" style="ellipse;whiteSpace=wrap;html=1;aspect=fixed;fontSize=22;fontFamily=Verdana;strokeWidth=2;fillColor=#FFFFFF;strokeColor=#808080;fontColor=#808080;dashed=1;" vertex="1" parent="1">
          <mxGeometry x="1670" y="10313.5" width="80" height="80" as="geometry" />
        </mxCell>
        <mxCell id="UCHa1UU7zW6uGpZXuyY--99" value="$$\Lambda^{V_2}_{jt} + \Psi^{V_2}_{jt} $$" style="text;html=1;align=center;verticalAlign=middle;whiteSpace=wrap;rounded=0;rotation=0;fontSize=18;fontFamily=Verdana;fontColor=#000000;strokeWidth=2;" vertex="1" parent="1">
          <mxGeometry x="1706" y="10486.5" width="94" height="30" as="geometry" />
        </mxCell>
        <mxCell id="oLPMuAoCh5_cgTSaJTIH-142" value="$$V^{\text{imm}}_1$$" style="ellipse;whiteSpace=wrap;html=1;aspect=fixed;fontSize=22;fontFamily=Verdana;strokeWidth=2;fillColor=#FFFFFF;strokeColor=#36393d;fontColor=#000000;" parent="1" vertex="1">
          <mxGeometry x="1407.5" y="10611" width="80" height="80" as="geometry" />
        </mxCell>
        <mxCell id="UCHa1UU7zW6uGpZXuyY--81" value="$$V^{\text{imm}}_2$$" style="ellipse;whiteSpace=wrap;html=1;aspect=fixed;fontSize=22;fontFamily=Verdana;strokeWidth=2;fillColor=#FFFFFF;strokeColor=#36393d;fontColor=#000000;" vertex="1" parent="1">
          <mxGeometry x="1406.5" y="10313.5" width="80" height="80" as="geometry" />
        </mxCell>
        <mxCell id="UCHa1UU7zW6uGpZXuyY--105" value="$$ d_{jt} $$" style="text;html=1;align=center;verticalAlign=middle;whiteSpace=wrap;rounded=0;rotation=0;fontSize=17;fontFamily=Verdana;fillColor=none;fontColor=#B3B3B3;strokeColor=none;strokeWidth=2;" vertex="1" parent="1">
          <mxGeometry x="1543" y="10855" width="20" height="30" as="geometry" />
        </mxCell>
        <mxCell id="oLPMuAoCh5_cgTSaJTIH-207" value="&lt;div style=&quot;font-size: 18px;&quot;&gt;$$I_1$$&lt;/div&gt;" style="ellipse;whiteSpace=wrap;html=1;aspect=fixed;fontSize=18;fontFamily=Verdana;fillColor=#FFFFFF;strokeColor=#000000;strokeWidth=2;fontColor=#000000;" parent="1" vertex="1">
          <mxGeometry x="2098.25" y="10821" width="80" height="80" as="geometry" />
        </mxCell>
        <mxCell id="oLPMuAoCh5_cgTSaJTIH-205" value="&lt;div style=&quot;font-size: 18px;&quot;&gt;$$I_2$$&lt;/div&gt;" style="ellipse;whiteSpace=wrap;html=1;aspect=fixed;fontSize=18;fontFamily=Verdana;fillColor=#FFFFFF;strokeColor=#000000;strokeWidth=2;fontColor=#000000;" parent="1" vertex="1">
          <mxGeometry x="2098.25" y="10942" width="80" height="80" as="geometry" />
        </mxCell>
      </root>
    </mxGraphModel>
  </diagram>
</mxfile>
